<?xml version="1.0" encoding="utf-8"?>
<!-- Generator: Adobe Illustrator 16.0.3, SVG Export Plug-In . SVG Version: 6.00 Build 0)  -->
<!DOCTYPE svg PUBLIC "-//W3C//DTD SVG 1.1//EN" "http://www.w3.org/Graphics/SVG/1.1/DTD/svg11.dtd">
<svg version="1.1" id="Layer_1" xmlns="http://www.w3.org/2000/svg" xmlns:xlink="http://www.w3.org/1999/xlink" x="0px" y="0px"
	 width="658.97px" height="83.832px" viewBox="670.515 958.084 658.97 83.832"
	 enable-background="new 670.515 958.084 658.97 83.832" xml:space="preserve">
<g>
	
		<linearGradient id="SVGID_1_" gradientUnits="userSpaceOnUse" x1="7.8936" y1="1349.4219" x2="7.8935" y2="1559.5251" gradientTransform="matrix(1 0 0 -1 694 2605)">
		<stop  offset="0" style="stop-color:#E52000"/>
		<stop  offset="1" style="stop-color:#F82200"/>
	</linearGradient>
	<path fill="url(#SVGID_1_)" d="M670.515,1041.916v-83.832h28.328c9.864,0,17.562,1.92,23.088,5.758
		c5.527,3.838,8.291,9.577,8.291,17.215c0,3.878-1.026,7.342-3.081,10.394c-2.054,3.052-5.037,5.346-8.953,6.881
		c5.028,1.074,8.801,3.378,11.314,6.91c2.514,3.53,3.771,7.619,3.771,12.264c0,8.021-2.649,14.096-7.946,18.223
		s-12.802,6.189-22.512,6.189L670.515,1041.916L670.515,1041.916z M687.327,993.206h12.091c4.491,0,7.945-0.921,10.364-2.764
		c2.418-1.843,3.627-4.528,3.627-8.062c0-3.876-1.219-6.736-3.656-8.579c-2.438-1.842-6.074-2.764-10.91-2.764h-11.516V993.206
		L687.327,993.206z M687.327,1004.836v24.125h15.487c4.453,0,7.85-0.967,10.19-2.9s3.513-4.797,3.513-8.588
		c0-4.098-0.998-7.227-2.994-9.391c-1.995-2.164-5.145-3.246-9.441-3.246H687.327L687.327,1004.836z"/>
	
		<linearGradient id="SVGID_2_" gradientUnits="userSpaceOnUse" x1="99.772" y1="1349.4219" x2="99.772" y2="1559.5251" gradientTransform="matrix(1 0 0 -1 694 2605)">
		<stop  offset="0" style="stop-color:#E52000"/>
		<stop  offset="1" style="stop-color:#F82200"/>
	</linearGradient>
	<path fill="url(#SVGID_2_)" d="M777.132,1008.406v33.51H760.32v-83.832h31.608c9.559,0,17.032,2.179,22.427,6.535
		c5.393,4.355,8.09,10.431,8.09,18.223c0,4.338-1.133,8.062-3.397,11.17c-2.266,3.108-5.585,5.623-9.961,7.542
		c4.952,1.459,8.513,3.896,10.681,7.312s3.254,7.639,3.254,12.666v6.16c0,2.342,0.315,4.788,0.949,7.342
		c0.633,2.553,1.719,4.442,3.254,5.672v1.209h-17.33c-1.536-1.229-2.534-3.283-2.994-6.162c-0.461-2.877-0.691-5.604-0.691-8.176
		v-5.93c0-4.185-1.143-7.437-3.426-9.761c-2.284-2.319-5.498-3.481-9.645-3.481L777.132,1008.406L777.132,1008.406z
		 M777.132,995.452h14.511c4.721,0,8.241-0.998,10.564-2.994c2.321-1.995,3.482-4.952,3.482-8.867c0-3.838-1.161-6.889-3.482-9.153
		c-2.323-2.266-5.749-3.397-10.277-3.397h-14.798V995.452z"/>
	
		<linearGradient id="SVGID_3_" gradientUnits="userSpaceOnUse" x1="191.0435" y1="1349.4219" x2="191.0434" y2="1559.5251" gradientTransform="matrix(1 0 0 -1 694 2605)">
		<stop  offset="0" style="stop-color:#E52000"/>
		<stop  offset="1" style="stop-color:#F82200"/>
	</linearGradient>
	<path fill="url(#SVGID_3_)" d="M899.754,1023.836h-29.422l-5.7,18.08h-16.983l28.846-83.832h17.215l28.73,83.832h-16.984
		L899.754,1023.836z M874.479,1010.652h21.131l-10.364-32.935H884.9L874.479,1010.652z"/>
	
		<linearGradient id="SVGID_4_" gradientUnits="userSpaceOnUse" x1="263.3994" y1="1349.4219" x2="263.3994" y2="1559.5251" gradientTransform="matrix(1 0 0 -1 694 2605)">
		<stop  offset="0" style="stop-color:#E52000"/>
		<stop  offset="1" style="stop-color:#F82200"/>
	</linearGradient>
	<path fill="url(#SVGID_4_)" d="M965.806,1041.916h-16.812v-83.832h16.812V1041.916z"/>
	
		<linearGradient id="SVGID_5_" gradientUnits="userSpaceOnUse" x1="343.6699" y1="1349.4219" x2="343.6699" y2="1559.5251" gradientTransform="matrix(1 0 0 -1 694 2605)">
		<stop  offset="0" style="stop-color:#E52000"/>
		<stop  offset="1" style="stop-color:#F82200"/>
	</linearGradient>
	<path fill="url(#SVGID_5_)" d="M1071.553,1041.916h-16.755l-33.854-57.289l-0.347,0.058v57.231h-16.812v-83.832h16.812
		l33.855,57.23l0.345-0.058v-57.173h16.755V1041.916z"/>
	
		<linearGradient id="SVGID_6_" gradientUnits="userSpaceOnUse" x1="456.6934" y1="1349.4219" x2="456.6934" y2="1559.5251" gradientTransform="matrix(1 0 0 -1 694 2605)">
		<stop  offset="0" style="stop-color:#E52000"/>
		<stop  offset="1" style="stop-color:#F82200"/>
	</linearGradient>
	<path fill="url(#SVGID_6_)" d="M1139.235,1004.088h-9.788v37.828h-11.344v-83.832h11.344v37.079h8.752l29.997-37.079h12.552
		l0.173,0.288l-32.53,40.245l34.892,43.009l-0.173,0.289h-13.53L1139.235,1004.088z"/>
	
		<linearGradient id="SVGID_7_" gradientUnits="userSpaceOnUse" x1="527.4346" y1="1349.4219" x2="527.4346" y2="1559.5251" gradientTransform="matrix(1 0 0 -1 694 2605)">
		<stop  offset="0" style="stop-color:#E52000"/>
		<stop  offset="1" style="stop-color:#F82200"/>
	</linearGradient>
	<path fill="url(#SVGID_7_)" d="M1227.134,1041.916h-11.399v-83.832h11.399V1041.916z"/>
	
		<linearGradient id="SVGID_8_" gradientUnits="userSpaceOnUse" x1="604.4229" y1="1349.4219" x2="604.4229" y2="1559.5251" gradientTransform="matrix(1 0 0 -1 694 2605)">
		<stop  offset="0" style="stop-color:#E52000"/>
		<stop  offset="1" style="stop-color:#F82200"/>
	</linearGradient>
	<path fill="url(#SVGID_8_)" d="M1267.36,1041.916v-83.832h25.736c10.979,0,19.786,3.368,26.429,10.104
		c6.64,6.736,9.959,15.44,9.959,26.111v11.458c0,10.709-3.319,19.412-9.959,26.111c-6.643,6.697-15.45,10.047-26.429,10.047
		L1267.36,1041.916L1267.36,1041.916z M1278.703,967.008v65.982h14.395c7.754,0,13.866-2.549,18.338-7.65
		c4.472-5.1,6.709-11.639,6.709-19.617v-11.561c0-7.901-2.237-14.4-6.709-19.502s-10.584-7.651-18.338-7.651L1278.703,967.008
		L1278.703,967.008z"/>
</g>
</svg>
